<svg xmlns="http://www.w3.org/2000/svg" width="36.51" height="37" fill="none" overflow="visible"><g><defs><linearGradient id="idid_t4NCHJoJcg-2065953140" x1="5.551115123125783e-17" x2="1" y1="0.03351333839168902" y2="0.966486661608311"><stop offset="0" stop-color="rgb(129, 74, 200)" stop-opacity="1"></stop><stop offset="1" stop-color="rgb(223, 122, 254)" stop-opacity="1"></stop></linearGradient></defs><path d="M 34.102 15.144 C 34.941 12.624 34.653 9.864 33.31 7.573 C 31.291 4.058 27.233 2.249 23.269 3.1 C 21.506 1.114 18.972 -0.016 16.316 0 C 12.265 -0.009 8.67 2.599 7.423 6.455 C 4.82 6.987 2.574 8.617 1.259 10.926 C -0.775 14.432 -0.311 18.851 2.406 21.857 C 1.567 24.377 1.856 27.137 3.198 29.428 C 5.217 32.944 9.276 34.752 13.239 33.901 C 15.002 35.888 17.536 37.017 20.192 37 C 24.246 37.01 27.842 34.399 29.088 30.541 C 31.691 30.008 33.938 28.378 35.253 26.069 C 37.284 22.564 36.819 18.148 34.103 15.142 Z M 20.194 34.582 C 18.572 34.585 17.001 34.016 15.755 32.977 C 15.829 32.938 15.902 32.897 15.974 32.853 L 23.342 28.598 C 23.719 28.384 23.95 27.983 23.948 27.55 L 23.948 17.163 L 27.061 18.961 C 27.095 18.977 27.117 19.009 27.122 19.046 L 27.122 27.648 C 27.117 31.473 24.019 34.574 20.194 34.582 Z M 5.297 28.219 C 4.484 26.816 4.192 25.171 4.47 23.573 C 4.524 23.606 4.62 23.664 4.689 23.704 L 12.056 27.959 C 12.43 28.177 12.893 28.177 13.267 27.959 L 22.262 22.765 L 22.262 26.361 C 22.263 26.398 22.247 26.434 22.218 26.457 L 14.77 30.757 C 11.453 32.667 7.216 31.532 5.298 28.219 Z M 3.358 12.136 C 4.167 10.731 5.444 9.655 6.967 9.097 C 6.967 9.16 6.963 9.272 6.963 9.351 L 6.963 17.862 C 6.961 18.295 7.192 18.695 7.568 18.91 L 16.563 24.103 L 13.449 25.901 C 13.417 25.921 13.378 25.925 13.343 25.91 L 5.895 21.606 C 2.584 19.689 1.449 15.454 3.357 12.138 Z M 28.942 18.09 L 19.947 12.896 L 23.061 11.099 C 23.092 11.078 23.132 11.075 23.166 11.09 L 30.615 15.39 C 33.931 17.306 35.067 21.548 33.152 24.865 C 32.341 26.268 31.065 27.343 29.544 27.903 L 29.544 19.138 C 29.547 18.705 29.318 18.305 28.943 18.09 Z M 32.04 13.426 C 31.986 13.392 31.89 13.334 31.822 13.295 L 24.454 9.04 C 24.08 8.821 23.617 8.821 23.243 9.04 L 14.249 14.234 L 14.249 10.638 C 14.247 10.601 14.263 10.565 14.293 10.542 L 21.74 6.245 C 25.058 4.331 29.299 5.47 31.211 8.789 C 32.02 10.191 32.312 11.831 32.038 13.426 Z M 12.556 19.835 L 9.441 18.037 C 9.408 18.02 9.385 17.988 9.381 17.951 L 9.381 9.35 C 9.383 5.52 12.49 2.417 16.32 2.419 C 17.94 2.419 19.508 2.988 20.753 4.024 C 20.679 4.063 20.606 4.105 20.534 4.148 L 13.167 8.403 C 12.79 8.616 12.558 9.017 12.561 9.45 L 12.556 19.833 Z M 14.248 16.188 L 18.254 13.874 L 22.261 16.187 L 22.261 20.813 L 18.254 23.126 L 14.248 20.813 Z" fill="url(#idid_t4NCHJoJcg-2065953140)"></path></g></svg>