<svg xmlns="http://www.w3.org/2000/svg" width="37" height="28.202" fill="none" overflow="visible"><g><defs><linearGradient id="idid_i7_PR6NTrg-2065953143" x1="0" x2="1" y1="0.10866768041744418" y2="0.8913323195825558"><stop offset="0" stop-color="rgb(129, 74, 200)" stop-opacity="1"></stop><stop offset="1" stop-color="rgb(223, 122, 254)" stop-opacity="1"></stop></linearGradient></defs><path d="M 31.322 2.338 C 28.923 1.237 26.392 0.452 23.791 0.002 C 23.742 -0.007 23.694 0.016 23.67 0.059 C 23.345 0.638 22.984 1.392 22.732 1.985 C 19.888 1.56 17.059 1.56 14.273 1.985 C 14.021 1.379 13.648 0.638 13.321 0.059 C 13.296 0.017 13.248 -0.006 13.2 0.002 C 10.557 0.457 8.028 1.254 5.669 2.338 C 5.648 2.347 5.631 2.361 5.619 2.38 C 0.822 9.547 -0.492 16.537 0.153 23.44 C 0.156 23.474 0.175 23.506 0.201 23.527 C 3.366 25.851 6.431 27.262 9.44 28.197 C 9.488 28.211 9.54 28.194 9.57 28.154 C 10.282 27.183 10.916 26.158 11.46 25.08 C 11.492 25.017 11.461 24.942 11.396 24.917 C 10.389 24.535 9.431 24.07 8.509 23.541 C 8.437 23.499 8.431 23.395 8.498 23.345 C 8.692 23.199 8.883 23.05 9.071 22.895 C 9.105 22.868 9.151 22.861 9.191 22.879 C 15.246 25.644 21.802 25.644 27.785 22.879 C 27.825 22.86 27.872 22.866 27.906 22.894 C 28.094 23.049 28.286 23.199 28.481 23.345 C 28.548 23.395 28.544 23.499 28.471 23.541 C 27.549 24.08 26.591 24.535 25.583 24.916 C 25.552 24.928 25.527 24.952 25.515 24.984 C 25.503 25.015 25.505 25.05 25.521 25.08 C 26.076 26.156 26.711 27.181 27.409 28.153 C 27.438 28.194 27.491 28.212 27.539 28.197 C 30.562 27.262 33.628 25.851 36.793 23.527 C 36.82 23.507 36.838 23.475 36.841 23.442 C 37.612 15.46 35.548 8.528 31.37 2.382 C 31.36 2.362 31.343 2.346 31.322 2.338 Z M 12.364 19.237 C 10.541 19.237 9.039 17.563 9.039 15.507 C 9.039 13.452 10.512 11.778 12.364 11.778 C 14.231 11.778 15.719 13.467 15.689 15.507 C 15.689 17.563 14.216 19.237 12.364 19.237 Z M 24.659 19.237 C 22.836 19.237 21.333 17.563 21.333 15.507 C 21.333 13.452 22.806 11.778 24.659 11.778 C 26.525 11.778 28.013 13.467 27.984 15.507 C 27.984 17.563 26.525 19.237 24.659 19.237 Z" fill="url(#idid_i7_PR6NTrg-2065953143)"></path></g></svg>